<?xml version="1.0" standalone="no"?>
<!DOCTYPE svg PUBLIC "-//W3C//DTD SVG 20010904//EN"
 "http://www.w3.org/TR/2001/REC-SVG-20010904/DTD/svg10.dtd">
<svg version="1.0" xmlns="http://www.w3.org/2000/svg"
 width="1024.000000pt" height="1024.000000pt" viewBox="0 0 1024.000000 1024.000000"
 preserveAspectRatio="xMidYMid meet">

<g transform="translate(0.000000,1024.000000) scale(0.100000,-0.100000)"
fill="#000000" stroke="none">
<path d="M5309 8591 c-76 -77 -10 -242 199 -498 41 -51 34 -55 -16 -12 -47 42
-129 77 -196 85 -50 6 -57 4 -81 -20 -22 -22 -26 -33 -21 -59 10 -49 42 -74
178 -143 144 -72 177 -98 246 -192 l49 -67 11 -130 c7 -71 13 -168 13 -215 1
-47 3 -77 6 -67 4 17 15 18 151 12 168 -8 167 -13 14 75 -104 59 -102 56 -62
146 45 102 180 139 363 98 130 -29 221 -86 268 -168 24 -43 29 -62 29 -119 0
-63 -2 -68 -19 -62 -89 28 -231 60 -231 52 0 -2 47 -40 105 -83 57 -44 105
-82 105 -87 0 -4 -24 -57 -52 -118 -45 -93 -56 -110 -73 -106 -11 2 -60 16
-110 31 -49 15 -120 31 -156 36 -36 5 -75 13 -85 16 -31 11 -6 -9 96 -76 122
-81 180 -128 180 -146 0 -17 -116 -250 -128 -258 -4 -3 -128 -8 -273 -12
l-265 -7 13 94 c8 51 15 94 17 96 1 2 58 6 125 10 l122 6 -47 33 c-88 62 -184
99 -184 71 0 -16 -148 -247 -183 -284 -19 -22 -28 -23 -169 -23 -95 0 -147 4
-143 10 3 5 47 31 97 57 107 55 197 135 257 226 90 138 121 270 123 514 1 161
-18 379 -34 389 -9 6 -45 -20 -264 -187 -276 -211 -384 -353 -426 -563 -25
-127 -21 -290 9 -378 l20 -58 -117 0 -117 0 -33 92 c-51 147 -217 461 -340
643 -66 97 -210 273 -317 386 -95 100 -313 289 -400 346 -76 51 -58 53 29 2
205 -119 391 -260 548 -418 175 -176 315 -372 472 -660 40 -73 78 -134 83
-133 13 0 51 115 71 216 13 60 15 115 11 230 -5 166 -26 254 -89 366 -146 262
-453 507 -815 651 -231 92 -563 170 -841 199 -166 17 -166 17 -66 -136 30 -45
67 -111 83 -146 39 -87 119 -327 176 -523 25 -88 59 -196 76 -240 84 -216 251
-436 425 -561 79 -57 228 -127 324 -153 86 -24 297 -61 343 -61 23 0 42 -11
74 -42 24 -23 43 -46 43 -50 0 -4 -265 -9 -590 -10 l-590 -3 -29 80 c-16 44
-60 175 -99 290 -126 374 -172 459 -282 520 l-55 30 -333 3 -333 3 -34 -34
c-30 -30 -35 -42 -35 -82 0 -40 5 -52 34 -81 25 -25 43 -34 68 -34 18 0 150
-1 293 -2 285 -3 309 -8 338 -66 8 -15 182 -532 387 -1149 l374 -1121 -35 -74
c-30 -66 -34 -82 -34 -163 0 -80 3 -97 32 -157 17 -37 50 -87 73 -112 48 -52
158 -111 224 -121 l44 -7 -26 -51 c-24 -46 -27 -62 -27 -157 0 -94 3 -111 27
-161 50 -101 155 -162 283 -163 103 -1 167 24 236 93 70 70 93 131 93 246 0
67 -4 88 -26 133 l-27 52 212 0 c117 0 349 3 516 7 297 6 304 6 296 -13 -44
-107 -47 -120 -43 -204 10 -196 134 -316 323 -313 133 2 240 64 292 171 25 51
28 68 28 157 0 90 -3 105 -28 152 -15 29 -27 55 -27 58 0 3 29 5 65 5 57 0 69
3 96 28 24 21 32 39 36 73 5 41 2 50 -25 80 l-30 34 -1144 5 c-1071 5 -1145 6
-1176 23 -39 21 -78 79 -87 127 -9 51 28 119 81 147 l41 23 389 -9 c214 -4
704 -6 1089 -4 656 3 704 5 765 23 90 27 175 79 242 150 103 110 149 225 259
645 28 105 72 267 99 360 119 416 129 483 81 537 l-30 33 -250 -3 c-199 -2
-251 0 -250 10 0 7 18 40 39 73 142 221 228 380 272 505 30 86 33 105 33 210
0 105 -2 120 -28 171 -34 69 -92 137 -152 177 l-45 30 58 53 c41 39 79 62 132
83 200 78 240 106 240 170 0 48 -30 72 -89 69 -55 -2 -144 -33 -195 -68 -20
-13 -36 -21 -36 -17 0 4 42 54 94 111 105 116 138 172 144 247 5 55 -9 79 -54
90 -82 21 -149 -58 -252 -296 -9 -21 -11 -14 -11 47 -2 153 -39 233 -110 233
-61 0 -86 -35 -86 -118 0 -37 6 -114 14 -172 14 -108 11 -223 -9 -302 l-11
-43 -152 0 c-120 -1 -162 -5 -200 -19 -27 -9 -52 -14 -55 -11 -4 4 -7 61 -6
128 0 95 6 148 27 239 33 142 35 211 7 256 -30 50 -86 62 -129 28 -29 -23 -52
-97 -58 -187 -3 -49 -9 -86 -13 -82 -4 4 -28 68 -54 141 -25 74 -56 157 -68
185 -64 151 -150 206 -219 138z m-1604 -1281 c3 -5 1 -10 -4 -10 -6 0 -11 5
-11 10 0 6 2 10 4 10 3 0 8 -4 11 -10z m1537 -287 c-45 -98 -115 -254 -155
-348 -73 -168 -86 -185 -123 -171 -20 8 15 98 109 279 77 150 239 428 246 422
2 -2 -33 -84 -77 -182z m1355 -732 c0 -1 -14 -52 -32 -113 -19 -62 -54 -192
-80 -288 -116 -442 -192 -690 -225 -745 -30 -49 -91 -102 -145 -127 l-50 -23
-1120 -5 c-616 -3 -1120 -5 -1121 -5 0 0 -257 781 -354 1076 -38 119 -70 219
-70 222 0 9 3180 16 3197 8z m-2332 -2161 c58 -36 80 -112 50 -170 -36 -69
-106 -94 -178 -62 -54 24 -77 62 -77 126 0 48 33 100 74 116 38 15 98 11 131
-10z m1565 5 c65 -33 91 -122 53 -185 -25 -43 -87 -74 -136 -67 -92 13 -147
127 -97 205 35 56 119 78 180 47z"/>
<path d="M1733 3445 c-151 -33 -287 -137 -351 -268 -55 -112 -76 -213 -69
-337 10 -186 61 -316 161 -415 106 -106 209 -140 416 -140 146 0 263 23 345
68 l40 22 3 245 c1 135 0 255 -3 268 l-5 22 -193 -2 -192 -3 -3 -71 c-2 -50 1
-74 11 -82 7 -6 49 -12 92 -14 l80 -3 0 -124 0 -125 -30 -9 c-16 -4 -76 -9
-132 -9 -96 -1 -106 1 -168 31 -48 24 -75 45 -100 79 -94 130 -110 364 -35
519 56 117 147 174 291 181 105 5 176 -13 271 -69 36 -21 71 -39 78 -39 7 0
10 31 8 98 l-3 97 -65 32 c-36 18 -95 39 -132 48 -81 18 -230 18 -315 0z"/>
<path d="M6261 3445 c-214 -60 -368 -223 -417 -442 -43 -195 17 -433 144 -566
150 -157 473 -205 690 -102 l72 34 0 84 c0 47 -5 88 -11 94 -8 8 -32 0 -88
-28 -156 -81 -319 -76 -443 12 -76 54 -138 204 -138 331 1 338 275 509 577
361 40 -19 77 -32 82 -28 6 3 11 42 11 89 0 97 -1 98 -118 143 -56 22 -87 27
-187 29 -85 3 -136 0 -174 -11z"/>
<path d="M8560 3352 c-21 -6 -30 -23 -60 -115 l-35 -107 -37 0 c-20 0 -48 -4
-62 -10 -25 -9 -26 -14 -26 -80 l0 -70 66 0 65 0 -2 -267 c-2 -282 1 -305 44
-351 48 -52 93 -66 212 -66 80 0 120 4 148 16 l37 17 0 76 0 77 -50 -7 c-111
-15 -160 -1 -180 51 -6 14 -10 122 -10 240 l0 214 114 0 c95 0 115 3 120 16
11 28 6 120 -6 132 -8 8 -49 12 -120 12 l-107 0 -3 113 -3 112 -40 2 c-22 1
-51 -2 -65 -5z"/>
<path d="M2827 3149 c-56 -13 -89 -33 -130 -78 l-37 -41 0 39 c0 55 -14 62
-117 59 l-88 -3 -5 -70 c-3 -38 -3 -223 0 -410 l5 -340 100 0 100 0 5 255 c5
240 6 258 27 297 13 23 39 54 59 69 30 23 48 28 115 32 77 4 79 5 80 31 0 14
4 52 8 84 6 48 4 60 -8 66 -29 15 -75 19 -114 10z"/>
<path d="M3319 3150 c-107 -18 -211 -93 -269 -195 -82 -144 -81 -369 4 -503
29 -47 94 -105 143 -130 120 -61 344 -51 462 20 l33 21 -7 76 c-4 42 -8 77 -9
78 -1 1 -30 -12 -66 -30 -49 -25 -80 -33 -135 -35 -152 -8 -238 49 -260 171
l-7 37 241 0 241 0 17 27 c24 36 23 187 -1 253 -40 109 -125 180 -243 205 -75
16 -77 16 -144 5z m148 -176 c31 -20 63 -86 63 -129 l0 -35 -159 0 -158 0 8
46 c18 96 90 150 184 138 22 -3 50 -12 62 -20z"/>
<path d="M7153 3150 c-61 -11 -145 -42 -190 -70 -32 -19 -33 -22 -33 -88 0
-37 5 -73 11 -79 8 -8 28 -3 75 19 165 77 319 51 352 -60 22 -71 25 -69 -115
-75 -146 -6 -212 -23 -275 -70 -94 -70 -126 -212 -74 -323 43 -93 126 -131
260 -121 86 6 153 35 196 83 28 33 42 42 38 27 -1 -5 1 -22 5 -40 10 -49 51
-66 154 -61 92 3 103 10 103 64 0 34 -15 54 -42 54 -10 0 -20 9 -23 23 -2 12
-6 130 -7 262 -3 226 -4 243 -26 290 -31 68 -86 121 -147 144 -61 23 -190 33
-262 21z m220 -543 c-3 -105 -54 -159 -157 -165 -59 -4 -66 -2 -97 26 -29 26
-34 37 -34 76 0 36 6 51 27 72 34 35 106 54 193 51 l70 -2 -2 -58z"/>
<path d="M8155 3151 c-51 -13 -92 -39 -129 -83 l-36 -42 0 46 c0 33 -5 48 -16
52 -29 11 -179 7 -192 -6 -13 -13 -15 -382 -3 -663 l6 -150 100 0 100 0 5 255
c4 156 10 265 17 281 36 83 117 127 213 116 27 -3 51 -3 54 1 2 4 7 44 11 89
6 73 5 82 -12 91 -28 15 -84 21 -118 13z"/>
<path d="M4098 3136 c-146 -52 -243 -177 -270 -348 -20 -131 15 -279 88 -376
38 -49 120 -99 194 -118 113 -29 292 -7 378 46 31 19 32 22 32 87 0 89 -9 102
-46 76 -68 -48 -206 -68 -285 -42 -77 26 -138 101 -139 172 l0 27 233 0 c186
0 237 3 253 14 16 12 20 29 22 110 7 170 -43 267 -169 330 -67 34 -78 36 -163
36 -50 -1 -107 -7 -128 -14z m188 -155 c45 -20 72 -65 81 -132 l6 -39 -162 0
-161 0 6 28 c20 92 44 124 111 147 51 19 70 18 119 -4z"/>
<path d="M5016 3130 c-27 -11 -64 -34 -83 -52 l-33 -32 0 37 c0 45 -12 49
-120 45 l-75 -3 0 -410 0 -410 103 -3 102 -3 2 53 c1 29 2 154 2 278 1 206 3
228 21 259 35 59 67 76 147 76 68 0 70 -1 104 -37 39 -44 37 -19 35 -343 -1
-132 2 -250 5 -263 6 -22 10 -23 108 -20 l101 3 0 325 c0 318 0 326 -23 375
-30 65 -56 93 -117 121 -66 31 -204 33 -279 4z"/>
</g>
</svg>
